<svg xmlns="http://www.w3.org/2000/svg" xmlns:xlink="http://www.w3.org/1999/xlink" width="1080" height="1080"
    viewBox="0 0 1080 1080">
    <style>
        @import url(mystyles.css);
    </style>
    <rect fill="#ddd" width="1080" height="1080" /> <!-- Background -->

<rect fill="#ddd" width="1080" height="1080"/> <!-- Background -->

<g> <!-- track -->
    <!-- left -->
    <path fill="#aaa" d="M 0 0 h 130 q 60 108, 0 216 q -60 108, 0 216 q 60 108, 0 216 q -60 108, 0 216 q 60 108, 0 216 h -130 Z"/>
    
    <!-- right -->
    <path fill="#aaa" d="M 1080 0 h -130 q 60 108, 0 216 q -60 108, 0 216 q 60 108, 0 216 q -60 108, 0 216 q 60 108, 0 216 h 130 Z"/>
</g>

<g transform="translate(30, 130)"> <!-- skier -->
    <g transform="translate(0, -60)"> <!-- ski -->
        <!-- left -->
        <rect x="25" y="0" rx="10" ry="25" width="35" height="270" fill="blue" stroke="black" stroke-width="3"/>
        <!-- right -->
        <rect x="100" y="0" rx="10" ry="25" width="35" height="270" fill="blue" stroke="black" stroke-width="3"/>
    </g>
    <g transform="translate(0, -150)"> <!-- stick -->
        <!-- left -->
        <rect transform="rotate(-10, 20, 180)" x="15" y="30" width="10" height="150" fill="green" stroke="black" stroke-width="3"/>
        <!-- right -->
        <rect transform="rotate(10, 140, 180)" x="135" y="30" width="10" height="150" fill="green" stroke="black" stroke-width="3"/>
    </g>
    <g> <!-- character -->
        <!-- body -->
        <rect x="0" y="0" width="160" height="60" rx="20" ry="10" fill="red" stroke="black" stroke-width="3"/>
        <!-- head -->
        <circle cx="80" cy="30" r="40" fill="green" stroke="black" stroke-width="3"/>
    </g>
</g>
<g transform="translate(420, 200)"> <!-- helicopter -->
    <g> <!-- body --> 
        <rect x="190" y="-15" width="210" height="30" fill="red" stroke="black" stroke-width="3"/>
        <ellipse x="0" y="0" rx="200" ry="100" fill="red" stroke="black" stroke-width="3"/>
    </g>
    <!-- window -->
    <path d="M -130 -70 v 140 l -40 -25 l -25 -45 l 25 -45 Z" fill="skyblue"/>
    <g transform="translate(400, 0) rotate(45)"> <!-- mini propellers -->
        <rect transform="translate(-80, -10)" width="160" height="20" fill="gray" stroke="black" stroke-width="3"/>
        <rect transform="rotate(90) translate(-80, -10)" width="160" height="20" fill="gray" stroke="black" stroke-width="3"/>
    </g>
    <g transform="rotate(45)"> <!-- propellers -->
        <rect transform="translate(-250, -15)" width="500" height="30" fill="gray" stroke="black" stroke-width="3"/>
        <rect transform="rotate(90) translate(-250, -15)" width="500" height="30" fill="gray" stroke="black" stroke-width="3"/>
    </g>
</g>
<!--snowmobile rescuer-->

    <g>

        <!-- > left chain -->
        <rect class="snowmobilechain" x="10" y="80" width="30" height="100" rx="2" />
        <!-- > right chain -->
        <rect class="snowmobilechain" x="105" y="80" width="30" height="100" rx="2" />
        <!-- > Snowbilebody mainframe -->
        <path class="snowmobilebody" stroke="black"
            d="M25,20 H120 A5,5,0,0,1,125,25 v120 A60,70,0,0,1,20,145 V25  A5,5,0,0,1,25,20" />
        <!-- > Snowbileseat  -->
        <rect class="snowmobileseat" x="45" y="65" width="55" height="55" rx="2" />
        <!-- > back trunk  -->
        <rect class="snowmobiletrunk" x="60" y="10" width="25" height="10" rx="2" />
        <!-- > front glass  -->
        <path class="snowmobileglass" stroke="black" d="M45,130 A20,10,0,0,0,100,130 " />
    </g>
</svg>