<svg xmlns="http://www.w3.org/2000/svg" xmlns:xlink="http://www.w3.org/1999/xlink" width="1080" height="1080" viewBox="0 0 1080 1080">

<rect fill="#ddd" width="1080" height="1080"/> <!-- Background -->

<g> <!-- track -->
    <!-- left -->
    <path fill="#aaa" d="M 0 0 h 130 c 0 0, 60 108, 0 216 c 0 0, -60 108, 0 216 c 0 0, 60 108, 0 216 c 0 0, -60 108, 0 216 c 0 0, 60 108, 0 216 h -130 Z"/>
    
    <!-- right -->
    <path fill="#aaa" d="M 1080 0 h -130 c 0 0, 60 108, 0 216 c 0 0, -60 108, 0 216 c 0 0, 60 108, 0 216 c 0 0, -60 108, 0 216 c 0 0, 60 108, 0 216 h 130 Z"/>
</g>

<g transform="translate(30, 130)"> <!-- skier -->
    <g transform="translate(0, -60)"> <!-- ski -->
        <!-- left -->
        <rect x="25" y="0" rx="10" ry="25" width="35" height="270" fill="blue" stroke="black" stroke-width="3"/>
        <!-- right -->
        <rect x="100" y="0" rx="10" ry="25" width="35" height="270" fill="blue" stroke="black" stroke-width="3"/>
    </g>
    <g transform="translate(0, -150)"> <!-- stick -->
        <!-- left -->
        <rect transform="rotate(-10, 20, 180)" x="15" y="30" width="10" height="150" fill="green" stroke="black" stroke-width="3"/>
        <!-- right -->
        <rect transform="rotate(10, 140, 180)" x="135" y="30" width="10" height="150" fill="green" stroke="black" stroke-width="3"/>
    </g>
    <g> <!-- character -->
        <!-- body -->
        <rect x="0" y="0" width="160" height="60" rx="20" ry="10" fill="red" stroke="black" stroke-width="3"/>
        <!-- head -->
        <circle cx="80" cy="30" r="40" fill="green" stroke="black" stroke-width="3"/>
    </g>
</g>
</svg>